<?xml version="1.0" standalone="no"?>
<!DOCTYPE svg PUBLIC "-//W3C//DTD SVG 20010904//EN"
 "http://www.w3.org/TR/2001/REC-SVG-20010904/DTD/svg10.dtd">
<svg version="1.0" xmlns="http://www.w3.org/2000/svg"
 width="1368.000000pt" height="1368.000000pt" viewBox="0 0 1368.000000 1368.000000"
 preserveAspectRatio="xMidYMid meet">
<metadata>
Created by potrace 1.14, written by Peter Selinger 2001-2017
</metadata>
<g transform="translate(0.000000,1368.000000) scale(0.100000,-0.100000)"
fill="#000000" stroke="none">
<path d="M4710 9583 l0 -618 3247 1 c1787 1 3250 2 3253 3 3 1 5 278 5 616 l0
615 -3252 0 -3253 0 0 -617z"/>
<path d="M7179 8405 c-1 0 -2 -278 -3 -617 l-1 -617 3253 0 3252 0 0 617 0
618 -3250 0 c-1787 0 -3250 0 -3251 -1z"/>
<path d="M2584 6488 c-9 -14 -8 -203 0 -217 4 -6 4 -11 -1 -11 -9 0 -9 -200 0
-224 4 -9 3 -16 -1 -16 -4 0 -6 -170 -4 -377 l2 -378 3243 0 c1783 0 3247 3
3252 7 7 4 9 213 8 600 -1 326 -2 601 -2 610 -1 15 -220 16 -3246 16 -2268 0
-3247 -3 -3251 -10z"/>
<path d="M4 4701 c-2 -2 -4 -280 -4 -618 l0 -613 3250 0 c1788 0 3250 3 3251
8 4 28 3 1215 -1 1221 -5 7 -6489 9 -6496 2z"/>
</g>
</svg>
