<svg id="fb8f9d03-71e0-47ce-8a33-64cdbfa7cc14" data-name="Laag 1" xmlns="http://www.w3.org/2000/svg" viewBox="0 0 280.47 104.25"><defs><style>.f8a9cbc8-c2a9-4cf6-9d2e-3eb229fa1004{fill:#00b3c4;}.e9a826b8-403a-4416-8cda-3ce236f2ce3b{fill:#304753;}</style></defs><rect class="f8a9cbc8-c2a9-4cf6-9d2e-3eb229fa1004" x="119.49" width="60.82" height="11.54"/><rect class="f8a9cbc8-c2a9-4cf6-9d2e-3eb229fa1004" x="142.56" y="16.78" width="60.82" height="11.54"/><rect class="f8a9cbc8-c2a9-4cf6-9d2e-3eb229fa1004" x="99.56" y="34.61" width="60.82" height="11.54"/><rect class="f8a9cbc8-c2a9-4cf6-9d2e-3eb229fa1004" x="75.44" y="51.39" width="60.82" height="11.54"/><path class="e9a826b8-403a-4416-8cda-3ce236f2ce3b" d="M15.23,96.2c-.25-.23-.51-.51-.79-.82l-.75-.87c-.28-.33-.55-.67-.82-1,0,.43.09.86.15,1.28s.07.76.1,1.18,0,.8,0,1.15v8.3H9.35v-20h.41l10,9.38c.24.23.49.51.76.82l.76.87q.4.49.81,1c-.06-.43-.1-.85-.14-1.28s-.07-.76-.09-1.18,0-.8,0-1.15V85.6h3.81v20h-.4Z" transform="translate(-9.35 -3.33)"/><polygon class="e9a826b8-403a-4416-8cda-3ce236f2ce3b" points="191.97 93.36 189.9 91.47 179.91 82.1 179.51 82.1 179.51 102.07 183.32 102.07 183.32 93.78 183.32 90.81 185.39 92.87 195.38 102.25 195.78 102.25 195.78 82.27 191.97 82.27 191.97 90.57 191.97 93.36"/><path class="e9a826b8-403a-4416-8cda-3ce236f2ce3b" d="M41.69,101.93a6,6,0,0,0,2.46-.49,5.86,5.86,0,0,0,1.92-1.37A6.31,6.31,0,0,0,47.31,98a8,8,0,0,0,0-5.18,6.52,6.52,0,0,0-1.24-2.07,6,6,0,0,0-1.92-1.37,6.47,6.47,0,0,0-4.94,0,6,6,0,0,0-1.91,1.37,6.32,6.32,0,0,0-1.23,2.07,7.84,7.84,0,0,0,0,5.18,6.12,6.12,0,0,0,1.23,2.07,5.82,5.82,0,0,0,1.91,1.37,6,6,0,0,0,2.48.49m0,3.64a10.28,10.28,0,0,1-4-.77,10,10,0,0,1-6.23-9.39,10.1,10.1,0,0,1,.8-4,9.87,9.87,0,0,1,2.18-3.21A10,10,0,0,1,37.67,86a10.83,10.83,0,0,1,8,0A10.06,10.06,0,0,1,49,88.15a9.87,9.87,0,0,1,2.18,3.21,10.07,10.07,0,0,1-5.44,13.44,10.33,10.33,0,0,1-4,.77" transform="translate(-9.35 -3.33)"/><path class="e9a826b8-403a-4416-8cda-3ce236f2ce3b" d="M237.73,101.93a6,6,0,0,0,2.46-.49,5.8,5.8,0,0,0,1.93-1.37A6.12,6.12,0,0,0,243.35,98a7.84,7.84,0,0,0,0-5.18,6.32,6.32,0,0,0-1.23-2.07,5.94,5.94,0,0,0-1.93-1.37,6.45,6.45,0,0,0-4.93,0,5.86,5.86,0,0,0-1.91,1.37,6.34,6.34,0,0,0-1.24,2.07,8,8,0,0,0,0,5.18,6.14,6.14,0,0,0,1.24,2.07,5.72,5.72,0,0,0,1.91,1.37,6,6,0,0,0,2.47.49m0,3.64a10.35,10.35,0,0,1-4-.77,10.06,10.06,0,0,1-3.24-2.12,10.44,10.44,0,0,1-2.19-11.32A10,10,0,0,1,233.71,86a10.85,10.85,0,0,1,8,0A10.06,10.06,0,0,1,245,88.15a9.87,9.87,0,0,1,2.18,3.21,10.07,10.07,0,0,1-5.44,13.44,10.38,10.38,0,0,1-4,.77" transform="translate(-9.35 -3.33)"/><path class="e9a826b8-403a-4416-8cda-3ce236f2ce3b" d="M260.65,101.93a6,6,0,0,0,2.46-.49,5.66,5.66,0,0,0,1.92-1.37A6.14,6.14,0,0,0,266.27,98a8,8,0,0,0,0-5.18A6.34,6.34,0,0,0,265,90.75a5.8,5.8,0,0,0-1.92-1.37,6.47,6.47,0,0,0-4.94,0,5.82,5.82,0,0,0-1.9,1.37A6.18,6.18,0,0,0,255,92.82,7.84,7.84,0,0,0,255,98a6,6,0,0,0,1.24,2.07,5.68,5.68,0,0,0,1.9,1.37,6,6,0,0,0,2.48.49m0,3.64a10.28,10.28,0,0,1-4-.77,10.3,10.3,0,0,1-5.43-13.44,9.87,9.87,0,0,1,2.18-3.21A10.13,10.13,0,0,1,256.63,86a10.83,10.83,0,0,1,8,0,10,10,0,0,1,5.45,5.34,10.25,10.25,0,0,1-2.19,11.32,10,10,0,0,1-3.26,2.12,10.33,10.33,0,0,1-4,.77" transform="translate(-9.35 -3.33)"/><polygon class="e9a826b8-403a-4416-8cda-3ce236f2ce3b" points="46.9 82.45 46.9 86.03 52.54 86.03 52.54 102.25 56.62 102.25 56.62 86.03 62.27 86.03 62.27 82.45 46.9 82.45"/><polygon class="e9a826b8-403a-4416-8cda-3ce236f2ce3b" points="201.26 82.45 201.26 86.03 206.91 86.03 206.91 102.25 210.99 102.25 210.99 86.03 216.64 86.03 216.64 82.45 201.26 82.45"/><path class="e9a826b8-403a-4416-8cda-3ce236f2ce3b" d="M84.36,99.93l-1.43-3.44c-.16-.35-.3-.72-.44-1.13l-.38-1.17c-.13-.4-.26-.82-.37-1.25-.14.43-.27.85-.38,1.25L81,95.36a8.3,8.3,0,0,1-.42,1.13l-1.42,3.44ZM81.62,85.61H82l9,20H86.74l-.93-2.24h-8l-.93,2.24H72.92Z" transform="translate(-9.35 -3.33)"/><path class="e9a826b8-403a-4416-8cda-3ce236f2ce3b" d="M179.08,99.93l-1.43-3.44c-.15-.35-.3-.72-.44-1.13s-.26-.8-.37-1.17-.27-.82-.38-1.25c-.14.43-.26.85-.38,1.25s-.24.76-.36,1.17a9.87,9.87,0,0,1-.43,1.13l-1.42,3.44Zm-2.74-14.32h.35l9.05,20h-4.28l-.93-2.24h-8l-.93,2.24h-3.93Z" transform="translate(-9.35 -3.33)"/><rect class="e9a826b8-403a-4416-8cda-3ce236f2ce3b" x="109.48" y="82.45" width="4.08" height="19.8"/><path class="e9a826b8-403a-4416-8cda-3ce236f2ce3b" d="M112,105.57l-3.65-7.5a6.84,6.84,0,0,0-3.89-12.48H96.83v19.89h4.08v-6.2h3.78l3,6.3ZM100.91,89.49h3.57a3,3,0,1,1,0,5.9h-3.57Z" transform="translate(-9.35 -3.33)"/><path class="e9a826b8-403a-4416-8cda-3ce236f2ce3b" d="M289.82,105.57l-3.65-7.5a6.84,6.84,0,0,0-3.88-12.48h-7.65v19.89h4.07v-6.2h3.79l3,6.3ZM278.71,89.49h3.58a3,3,0,0,1,0,5.9h-3.58Z" transform="translate(-9.35 -3.33)"/><path class="e9a826b8-403a-4416-8cda-3ce236f2ce3b" d="M135.46,105.57a9.78,9.78,0,0,1-2.52-.3,8.64,8.64,0,0,1-2-.84,6.37,6.37,0,0,1-1.57-1.28,6.92,6.92,0,0,1-1.09-1.59l3.22-1.86a6.41,6.41,0,0,0,1.54,1.72,3.8,3.8,0,0,0,2.36.68,3.19,3.19,0,0,0,2-.55,1.82,1.82,0,0,0,0-2.93,14.24,14.24,0,0,0-2.12-1.11l-1-.42a14.79,14.79,0,0,1-2-1,6.55,6.55,0,0,1-1.49-1.25,5.17,5.17,0,0,1-1-1.61,6.23,6.23,0,0,1-.33-2.13,5.09,5.09,0,0,1,.41-2.06A4.85,4.85,0,0,1,131,87.38a5.4,5.4,0,0,1,1.83-1.11,7.67,7.67,0,0,1,5.66.33,6.07,6.07,0,0,1,2.36,2.47l-3.08,2a3.66,3.66,0,0,0-1.1-1.3,2.51,2.51,0,0,0-1.44-.4,1.94,1.94,0,0,0-1.39.48,1.82,1.82,0,0,0,.07,2.58,8.67,8.67,0,0,0,1.86,1l1,.43A18.71,18.71,0,0,1,139,95a7.29,7.29,0,0,1,1.64,1.3,5.15,5.15,0,0,1,1,1.64,6.09,6.09,0,0,1,.35,2.15,5.38,5.38,0,0,1-.49,2.36,4.94,4.94,0,0,1-1.37,1.73,5.93,5.93,0,0,1-2.08,1.06,9.05,9.05,0,0,1-2.61.35" transform="translate(-9.35 -3.33)"/><path class="e9a826b8-403a-4416-8cda-3ce236f2ce3b" d="M158.89,85.72h4.59l-6,7.88,7.11,12H160l-5-8.69-2.87,3.22v5.47h-3.79V85.72h3.79v8.42Z" transform="translate(-9.35 -3.33)"/></svg>